<?xml version="1.0" encoding="UTF-8" standalone="no"?>
<!-- Created with Inkscape (http://www.inkscape.org/) -->

<svg
   width="32"
   height="32"
   viewBox="0 0 8.4666666 8.4666666"
   version="1.1"
   id="svg1"
   inkscape:version="1.4.3 (0d15f75042, 2025-12-25)"
   sodipodi:docname="logo.svg"
   xmlns:inkscape="http://www.inkscape.org/namespaces/inkscape"
   xmlns:sodipodi="http://sodipodi.sourceforge.net/DTD/sodipodi-0.dtd"
   xmlns="http://www.w3.org/2000/svg"
   xmlns:svg="http://www.w3.org/2000/svg">
  <sodipodi:namedview
     id="namedview1"
     pagecolor="#ffffff"
     bordercolor="#000000"
     borderopacity="0.25"
     inkscape:showpageshadow="2"
     inkscape:pageopacity="0.0"
     inkscape:pagecheckerboard="0"
     inkscape:deskcolor="#d1d1d1"
     inkscape:document-units="px"
     showguides="true"
     inkscape:zoom="11.313709"
     inkscape:cx="-7.4246212"
     inkscape:cy="19.312854"
     inkscape:window-width="1920"
     inkscape:window-height="1012"
     inkscape:window-x="0"
     inkscape:window-y="0"
     inkscape:window-maximized="1"
     inkscape:current-layer="layer1" />
  <defs
     id="defs1">
    <rect
       x="6"
       y="6.0625"
       width="19.9375"
       height="19.9375"
       id="rect3" />
    <rect
       x="-0.1875"
       y="-0.1875"
       width="32.25"
       height="32.125"
       id="rect1" />
    <rect
       x="6"
       y="6.0625"
       width="19.9375"
       height="19.9375"
       id="rect3-7" />
    <rect
       x="6"
       y="6.0625"
       width="19.9375"
       height="19.9375"
       id="rect3-9" />
  </defs>
  <g
     inkscape:label="Warstwa 1"
     inkscape:groupmode="layer"
     id="layer1">
    <rect
       style="fill:#241c1c;stroke-width:0.423998"
       id="rect2"
       x="1.2e-08"
       y="4.5765618e-09"
       width="8.4666662"
       height="8.4666662" />
    <rect
       style="fill:#1a1a1a;stroke-width:0.27369"
       id="rect4-2"
       width="4.2333331"
       height="8.4666662"
       x="-1.7347235e-18"
       y="0" />
    <rect
       style="fill:#4d4d4d;stroke-width:0.27369"
       id="rect4"
       width="4.2333331"
       height="8.4666662"
       x="4.2333331"
       y="-1.7347235e-18" />
    <path
       sodipodi:type="star"
       style="fill:#333333;stroke-width:0.264999"
       id="path5"
       inkscape:flatsided="true"
       sodipodi:sides="3"
       sodipodi:cx="0.54957294"
       sodipodi:cy="-0.011693042"
       sodipodi:r1="4.2913623"
       sodipodi:r2="2.1456811"
       sodipodi:arg1="1.5735211"
       sodipodi:arg2="2.6207187"
       inkscape:rounded="0"
       inkscape:randomized="0"
       d="m 0.53787997,4.2796533 -3.69887547,-6.4471459 7.4328299,0.020253 z"
       inkscape:transform-center-x="-0.0066598081"
       inkscape:transform-center-y="0.87640332"
       transform="matrix(1.1390906,0,0,0.8207766,3.6006603,1.7790272)" />
    <path
       id="text2-0"
       style="writing-mode:lr-tb;direction:ltr;white-space:pre;shape-inside:url(#rect3-9);display:inline;fill:#000000;stroke-width:1.00157"
       d="M 6 8.4129939 L 8.8558403 13.705245 L 8.8558403 16.981002 L 9.9361596 16.981002 L 9.9361596 13.657134 L 12.57975 8.8025915 L 12.57975 8.4129939 L 11.627941 8.4129939 L 9.396 12.624831 L 7.1760806 8.4129939 L 6 8.4129939 z "
       transform="matrix(1.2465646,0,0,0.98817207,-7.2148043,-8.3134856)" />
    <path
       id="text2"
       style="writing-mode:lr-tb;direction:ltr;white-space:pre;shape-inside:url(#rect3);fill:#ffffff;stroke-width:1.00157"
       d="M 6.0000001 8.4129939 L 8.8558404 13.705245 L 8.8558404 16.981002 L 9.9361597 16.981002 L 9.9361597 13.657134 L 12.792 8.4129939 L 11.627941 8.4129939 L 9.396 12.624831 L 7.1760806 8.4129939 L 6.0000001 8.4129939 z M 8.865375 16.445502 L 9.926625 16.445502 L 9.926625 16.914065 L 8.865375 16.914065 L 8.865375 16.445502 z "
       transform="matrix(1.2465646,0,0,0.98817207,-7.4793877,-8.3134856)" />
    <rect
       style="fill:#ffffff;stroke-width:0.270611"
       id="rect5"
       width="1.3300835"
       height="0.50572407"
       x="3.5718749"
       y="7.9199605" />
  </g>
</svg>
